<?xml version="1.0" standalone="no"?>
<svg xmlns:xlink="http://www.w3.org/1999/xlink" id="wave" style="transform:rotate(180deg); transition: 0.3s" viewBox="0 0 1440 490" version="1.1" xmlns="http://www.w3.org/2000/svg"><defs><linearGradient id="sw-gradient-0" x1="0" x2="0" y1="1" y2="0"><stop stop-color="rgba(255, 255, 255, 1)" offset="0%"/><stop stop-color="rgba(223.445, 212.643, 212.643, 1)" offset="100%"/></linearGradient></defs><path style="transform:translate(0, 0px); opacity:1" fill="url(#sw-gradient-0)" d="M0,147L80,130.7C160,114,320,82,480,106.2C640,131,800,212,960,204.2C1120,196,1280,98,1440,122.5C1600,147,1760,294,1920,294C2080,294,2240,147,2400,114.3C2560,82,2720,163,2880,196C3040,229,3200,212,3360,204.2C3520,196,3680,196,3840,196C4000,196,4160,196,4320,212.3C4480,229,4640,261,4800,269.5C4960,278,5120,261,5280,220.5C5440,180,5600,114,5760,81.7C5920,49,6080,49,6240,57.2C6400,65,6560,82,6720,89.8C6880,98,7040,98,7200,106.2C7360,114,7520,131,7680,179.7C7840,229,8000,310,8160,302.2C8320,294,8480,196,8640,163.3C8800,131,8960,163,9120,147C9280,131,9440,65,9600,81.7C9760,98,9920,196,10080,204.2C10240,212,10400,131,10560,122.5C10720,114,10880,180,11040,196C11200,212,11360,180,11440,163.3L11520,147L11520,490L11440,490C11360,490,11200,490,11040,490C10880,490,10720,490,10560,490C10400,490,10240,490,10080,490C9920,490,9760,490,9600,490C9440,490,9280,490,9120,490C8960,490,8800,490,8640,490C8480,490,8320,490,8160,490C8000,490,7840,490,7680,490C7520,490,7360,490,7200,490C7040,490,6880,490,6720,490C6560,490,6400,490,6240,490C6080,490,5920,490,5760,490C5600,490,5440,490,5280,490C5120,490,4960,490,4800,490C4640,490,4480,490,4320,490C4160,490,4000,490,3840,490C3680,490,3520,490,3360,490C3200,490,3040,490,2880,490C2720,490,2560,490,2400,490C2240,490,2080,490,1920,490C1760,490,1600,490,1440,490C1280,490,1120,490,960,490C800,490,640,490,480,490C320,490,160,490,80,490L0,490Z"/><defs><linearGradient id="sw-gradient-1" x1="0" x2="0" y1="1" y2="0"><stop stop-color="rgba(233, 221, 221, 1)" offset="0%"/><stop stop-color="rgba(239.383, 239.383, 239.383, 1)" offset="100%"/></linearGradient></defs><path style="transform:translate(0, 50px); opacity:0.9" fill="url(#sw-gradient-1)" d="M0,294L80,269.5C160,245,320,196,480,179.7C640,163,800,180,960,171.5C1120,163,1280,131,1440,130.7C1600,131,1760,163,1920,196C2080,229,2240,261,2400,245C2560,229,2720,163,2880,138.8C3040,114,3200,131,3360,122.5C3520,114,3680,82,3840,65.3C4000,49,4160,49,4320,89.8C4480,131,4640,212,4800,269.5C4960,327,5120,359,5280,334.8C5440,310,5600,229,5760,204.2C5920,180,6080,212,6240,228.7C6400,245,6560,245,6720,261.3C6880,278,7040,310,7200,334.8C7360,359,7520,376,7680,383.8C7840,392,8000,392,8160,392C8320,392,8480,392,8640,392C8800,392,8960,392,9120,383.8C9280,376,9440,359,9600,326.7C9760,294,9920,245,10080,204.2C10240,163,10400,131,10560,114.3C10720,98,10880,98,11040,114.3C11200,131,11360,163,11440,179.7L11520,196L11520,490L11440,490C11360,490,11200,490,11040,490C10880,490,10720,490,10560,490C10400,490,10240,490,10080,490C9920,490,9760,490,9600,490C9440,490,9280,490,9120,490C8960,490,8800,490,8640,490C8480,490,8320,490,8160,490C8000,490,7840,490,7680,490C7520,490,7360,490,7200,490C7040,490,6880,490,6720,490C6560,490,6400,490,6240,490C6080,490,5920,490,5760,490C5600,490,5440,490,5280,490C5120,490,4960,490,4800,490C4640,490,4480,490,4320,490C4160,490,4000,490,3840,490C3680,490,3520,490,3360,490C3200,490,3040,490,2880,490C2720,490,2560,490,2400,490C2240,490,2080,490,1920,490C1760,490,1600,490,1440,490C1280,490,1120,490,960,490C800,490,640,490,480,490C320,490,160,490,80,490L0,490Z"/></svg>